<svg width="173" height="209" viewBox="0 0 173 209" fill="none" xmlns="http://www.w3.org/2000/svg">
<g id="searchMan">
<path id="Vector" d="M172.673 207.462H33.0314V208.518H172.673V207.462Z" fill="#3F3D56"/>
<g id="lefthand">
<g id="Loop Search">
<path id="Vector_2" d="M44.264 115.374C43.6419 115.69 42.9307 115.722 42.2867 115.464C41.6428 115.206 41.1189 114.679 40.8302 113.998L25.9577 78.9211C25.6692 78.2404 25.6396 77.4622 25.8754 76.7577C26.1112 76.0531 26.5932 75.4799 27.2152 75.1641C27.8372 74.8483 28.5484 74.8158 29.1923 75.0737C29.8362 75.3317 30.3601 75.8589 30.6488 76.5395L45.5213 111.616C45.8099 112.297 45.8396 113.075 45.6038 113.78C45.368 114.485 44.8861 115.058 44.264 115.374Z" fill="#3F3D56"/>
<path id="Vector_3" d="M29.3915 80.2969C25.6802 82.1811 21.5417 82.8186 17.4993 82.1291C13.4569 81.4395 9.69219 79.4537 6.68117 76.4229C3.67015 73.392 1.54809 69.4522 0.583348 65.1017C-0.381399 60.7512 -0.145503 56.1853 1.26121 51.9814C2.66791 47.7776 5.18223 44.1246 8.48625 41.4844C11.7903 38.8442 15.7356 37.3354 19.8232 37.1488C23.9109 36.9622 27.9574 38.1061 31.4509 40.4359C34.9444 42.7657 37.7281 46.1768 39.45 50.2378C41.7525 55.6844 41.9866 61.908 40.1009 67.5432C38.2152 73.1785 34.3638 77.7651 29.3915 80.2969V80.2969ZM14.1562 44.3646C11.3728 45.7777 9.03477 48.0622 7.43789 50.9293C5.84101 53.7964 5.05697 57.1172 5.18489 60.4719C5.31281 63.8266 6.34694 67.0644 8.15654 69.7759C9.96614 72.4875 12.4699 74.5509 15.3513 75.7054C18.2326 76.8599 21.3621 77.0535 24.344 76.2617C27.3259 75.47 30.0262 73.7284 32.1036 71.2573C34.181 68.7862 35.542 65.6966 36.0147 62.3791C36.4873 59.0616 36.0503 55.6652 34.7589 52.6194C33.0236 48.5388 29.8798 45.3779 26.0174 43.8304C22.155 42.2828 17.8893 42.475 14.1562 44.3646V44.3646Z" fill="#3F3D56"/>
</g>
<path id="Right-arm" d="M41.6351 118.047C41.5254 117.861 41.4344 117.662 41.3637 117.454L39.1385 110.934C38.8795 110.172 38.9072 109.329 39.2154 108.59C39.5237 107.85 40.0873 107.275 40.7827 106.99L90.4464 86.6975C91.1424 86.4139 91.9128 86.4441 92.5884 86.7813C93.2641 87.1186 93.7899 87.7354 94.0504 88.4964L96.2754 95.017C96.4041 95.3941 96.4636 95.7952 96.4506 96.1975C96.4376 96.5997 96.3524 96.9953 96.1997 97.3615C96.047 97.7277 95.8299 98.0574 95.5607 98.3317C95.2916 98.6061 94.9757 98.8198 94.6311 98.9606L44.9678 119.253C44.3699 119.497 43.7137 119.51 43.1078 119.291C42.5018 119.072 41.9823 118.633 41.6351 118.047V118.047Z" fill="#6C63FF"/>
<path id="Vector_4" d="M90.2883 85.0126L70.0926 93.8248C69.4562 94.0342 68.918 94.5037 68.5896 95.1359C68.2611 95.7681 68.1677 96.5144 68.3288 97.2199L70.6725 107.488C70.7651 107.894 70.9387 108.272 71.1808 108.595C71.4229 108.919 71.7274 109.18 72.0726 109.359C72.4178 109.538 72.795 109.631 73.1771 109.632C73.5592 109.633 73.9366 109.541 74.2823 109.363L94.5337 98.9322C95.1753 98.6688 95.6953 98.1379 95.9799 97.4559C96.2646 96.7739 96.2907 95.9962 96.0526 95.2931L93.6182 86.675C93.3776 85.9718 92.8919 85.4018 92.2676 85.0901C91.6433 84.7784 90.9314 84.7505 90.2883 85.0126V85.0126Z" fill="#2F2E41"/>
</g>
<path id="Vector_5" d="M127.248 148.986C126.614 149.065 125.974 148.906 125.434 148.534C124.894 148.162 124.486 147.599 124.277 146.939L106.99 92.1013C106.87 91.7208 106.82 91.3181 106.842 90.9164C106.864 90.5146 106.959 90.1215 107.12 89.7596C107.281 89.3978 107.505 89.0741 107.781 88.8073C108.056 88.5404 108.377 88.3355 108.725 88.2042L114.738 85.9343C115.44 85.6699 116.21 85.7212 116.877 86.0771C117.545 86.433 118.056 87.0644 118.299 87.8326L135.586 142.671C135.828 143.439 135.781 144.281 135.455 145.012C135.13 145.742 134.553 146.302 133.852 146.568L127.839 148.837C127.647 148.91 127.449 148.96 127.248 148.986V148.986Z" fill="#6C63FF"/>
<path id="Vector_6" d="M119.588 86.894L126.222 109.55C126.48 110.221 126.491 110.974 126.254 111.654C126.017 112.333 125.551 112.887 124.951 113.199L116.219 117.753C115.875 117.933 115.498 118.027 115.115 118.029C114.733 118.03 114.356 117.939 114.01 117.761C113.664 117.584 113.358 117.325 113.115 117.003C112.871 116.681 112.696 116.303 112.601 115.898L107.072 92.1654C106.85 91.4562 106.893 90.6794 107.193 90.0052C107.493 89.3309 108.024 88.8141 108.672 88.5679L116.297 85.1405C116.946 84.8962 117.657 84.9437 118.274 85.2725C118.891 85.6012 119.363 86.1844 119.588 86.894V86.894Z" fill="#2F2E41"/>
<path id="Vector_7" d="M99.4987 207.773H93.1382C92.3956 207.772 91.6836 207.449 91.1584 206.874C90.6333 206.299 90.3379 205.52 90.337 204.708V146.698C90.3379 145.886 90.6333 145.107 91.1584 144.532C91.6836 143.957 92.3956 143.634 93.1382 143.633H99.4987C100.241 143.634 100.953 143.957 101.479 144.532C102.004 145.107 102.299 145.886 102.3 146.698V204.708C102.299 205.52 102.004 206.299 101.479 206.874C100.953 207.449 100.241 207.772 99.4987 207.773Z" fill="#2F2E41"/>
<path id="Vector_8" d="M112.079 207.773H105.718C104.976 207.772 104.264 207.449 103.739 206.874C103.214 206.299 102.918 205.52 102.917 204.708V146.698C102.918 145.886 103.214 145.107 103.739 144.532C104.264 143.957 104.976 143.634 105.718 143.633H112.079C112.822 143.634 113.534 143.957 114.059 144.532C114.584 145.107 114.88 145.886 114.88 146.698V204.708C114.88 205.52 114.584 206.299 114.059 206.874C113.534 207.449 112.822 207.772 112.079 207.773Z" fill="#2F2E41"/>
<path id="Vector_9" d="M117.321 153.518H88.4205C87.6207 153.517 86.854 153.169 86.2884 152.55C85.7229 151.931 85.4048 151.092 85.4039 150.217V98.843C85.4039 93.7739 87.2441 88.9125 90.5198 85.3281C93.7955 81.7437 98.2383 79.73 102.871 79.73C107.503 79.73 111.946 81.7437 115.222 85.3281C118.498 88.9125 120.338 93.7739 120.338 98.843V150.217C120.337 151.092 120.019 151.931 119.453 152.55C118.888 153.169 118.121 153.517 117.321 153.518Z" fill="#CCCCCC"/>
<path id="Vector_10" d="M121.671 166.085H107.019V75.4719L107.291 75.5531C111.418 76.7927 115.059 79.479 117.656 83.2002C120.254 86.9214 121.664 91.4721 121.671 96.1546V166.085Z" fill="#2F2E41"/>
<path id="Vector_11" d="M97.5317 166.085H82.8794V96.1546C82.8865 91.4721 84.297 86.9214 86.8944 83.2002C89.4919 79.479 93.133 76.7927 97.2595 75.5531L97.5317 75.4719V166.085Z" fill="#2F2E41"/>
<g id="Head">
<path id="Vector_12" d="M102.652 69.1032C115.39 69.1032 125.716 57.8039 125.716 43.8655C125.716 29.9271 115.39 18.6278 102.652 18.6278C89.9142 18.6278 79.5881 29.9271 79.5881 43.8655C79.5881 57.8039 89.9142 69.1032 102.652 69.1032Z" fill="#6C63FF"/>
<path id="Vector_13" d="M128.728 38.0551C128.728 38.0551 130.021 -1.0847 113.214 11.6475C113.214 11.6475 103.517 -23.9555 79.815 29.3311L72.9198 36.8762C72.9198 36.8762 103.948 32.1605 132.822 46.779L128.728 38.0551Z" fill="#2F2E41"/>
</g>
<path id="Vector_14" d="M103.004 56.3641C101.579 56.3209 99.8062 56.2668 98.4402 55.1749C98.0335 54.8364 97.6993 54.4047 97.461 53.91C97.2228 53.4154 97.0863 52.8697 97.0611 52.3112C97.0364 51.9143 97.0959 51.5165 97.235 51.1489C97.3741 50.7814 97.589 50.454 97.8628 50.1924C98.5763 49.5327 99.6181 49.378 100.741 49.739L99.5776 40.4371L100.431 40.3091L101.799 51.2446L101.086 50.8866C100.259 50.4717 99.1244 50.2605 98.4192 50.9126C98.246 51.0831 98.1111 51.295 98.025 51.5318C97.9388 51.7686 97.9037 52.024 97.9224 52.278C97.9433 52.6937 98.0458 53.0995 98.2229 53.468C98.4 53.8364 98.6475 54.1588 98.9486 54.4132C100.012 55.2628 101.425 55.3724 103.028 55.4215L103.004 56.3641Z" fill="#2F2E41"/>
<path id="Vector_15" d="M95.3546 41.2394H90.7126V42.1825H95.3546V41.2394Z" fill="#2F2E41"/>
<path id="Vector_16" d="M110.007 41.2394H105.365V42.1825H110.007V41.2394Z" fill="#2F2E41"/>
</g>
</svg>
