<svg width="172" height="208" viewBox="0 0 172 208" fill="none" xmlns="http://www.w3.org/2000/svg">
<path d="M111.242 204.158V144.164C111.243 143.324 111.6 142.518 112.235 141.924C112.869 141.329 113.73 140.995 114.628 140.994H122.317C123.214 140.995 124.075 141.329 124.71 141.924C125.345 142.518 125.702 143.324 125.703 144.164V204.158C125.702 204.998 125.345 205.804 124.71 206.398C124.075 206.992 123.214 207.327 122.317 207.328H114.628C113.73 207.327 112.869 206.992 112.235 206.398C111.6 205.804 111.243 204.998 111.242 204.158V204.158Z" fill="#2F2E41"/>
<path d="M96.0343 204.158V144.164C96.0353 143.324 96.3924 142.518 97.0272 141.924C97.662 141.329 98.5227 140.995 99.4204 140.994H107.109C108.007 140.995 108.868 141.329 109.502 141.924C110.137 142.518 110.494 143.324 110.495 144.164V204.158C110.494 204.998 110.137 205.804 109.502 206.398C108.868 206.992 108.007 207.327 107.109 207.328H99.4204C98.5227 207.327 97.662 206.992 97.0272 206.398C96.3924 205.804 96.0353 204.998 96.0343 204.158V204.158Z" fill="#2F2E41"/>
<path d="M126.434 124.357H95.3031C93.5769 124.357 92.1775 125.668 92.1775 127.284V160.206C92.1775 161.822 93.5769 163.132 95.3031 163.132H126.434C128.16 163.132 129.56 161.822 129.56 160.206V127.284C129.56 125.668 128.16 124.357 126.434 124.357Z" fill="#2F2E41"/>
<path d="M38.4056 119.779L42.9755 125.567C44.0015 126.867 45.9586 127.142 47.3468 126.181L98.8824 90.5242C100.271 89.5636 100.564 87.7314 99.5383 86.4317L94.9685 80.6429C93.9425 79.3433 91.9854 79.0683 90.5971 80.0289L39.0615 115.686C37.6733 116.647 37.3796 118.479 38.4056 119.779Z" fill="#6C63FF"/>
<path d="M126.22 78.6765L119.429 82.0507C117.904 82.8083 117.324 84.5797 118.133 86.0072L148.173 139.001C148.982 140.428 150.874 140.971 152.399 140.214L159.19 136.84C160.715 136.082 161.295 134.311 160.486 132.883L130.446 79.8896C129.637 78.462 127.745 77.9189 126.22 78.6765Z" fill="#6C63FF"/>
<path d="M145.26 102.196L134.168 109.08C132.473 109.922 130.443 109.447 129.633 108.02L117.383 86.4094C116.574 84.9819 117.292 83.142 118.987 82.2999L126.537 78.549C128.232 77.7068 130.262 78.1814 131.072 79.6089L146.864 98.0862C147.673 99.5137 146.955 101.354 145.26 102.196Z" fill="#CCCCCC"/>
<path d="M69.6718 95.8652L76.8813 104.829C77.4486 105.394 78.2328 105.726 79.0613 105.751C79.8899 105.775 80.6949 105.491 81.2993 104.96L100.353 88.2163C100.958 87.6852 101.312 86.9511 101.338 86.1754C101.365 85.3997 101.061 84.6461 100.493 84.0802L95.2312 78.8318C94.6639 78.2659 93.8797 77.9342 93.0511 77.9097C92.2226 77.8851 91.4176 78.1697 90.8131 78.7008L69.8116 91.7291C69.2072 92.2602 68.8529 92.9943 68.8267 93.77C68.8005 94.5457 69.1044 95.2994 69.6718 95.8652V95.8652Z" fill="#CCCCCC"/>
<path d="M128.336 77.8142H93.4009C91.6747 77.8142 90.2753 79.1243 90.2753 80.7404V150.225C90.2753 151.841 91.6747 153.151 93.4009 153.151H128.336C130.062 153.151 131.462 151.841 131.462 150.225V80.7404C131.462 79.1243 130.062 77.8142 128.336 77.8142Z" fill="#CCCCCC"/>
<path d="M110.664 73.2795C126.062 73.2795 138.545 61.5937 138.545 47.1785C138.545 32.7632 126.062 21.0774 110.664 21.0774C95.2666 21.0774 82.7843 32.7632 82.7843 47.1785C82.7843 61.5937 95.2666 73.2795 110.664 73.2795Z" fill="#6C63FF"/>
<path d="M113.914 55.8932C112.191 55.8479 110.048 55.7917 108.398 54.663C107.906 54.3129 107.502 53.8664 107.214 53.3548C106.926 52.8431 106.761 52.2787 106.731 51.7011C106.701 51.2907 106.773 50.8794 106.941 50.4993C107.109 50.1192 107.369 49.7807 107.7 49.5102C108.562 48.8282 109.821 48.6673 111.179 49.0416L109.772 39.421L110.805 39.2886L112.458 50.5985L111.596 50.2285C110.597 49.7989 109.225 49.5807 108.372 50.2551C108.163 50.4314 108 50.6504 107.896 50.8953C107.792 51.1401 107.75 51.4041 107.772 51.6668C107.797 52.0967 107.921 52.5165 108.135 52.8976C108.349 53.2787 108.648 53.6121 109.012 53.8752C110.296 54.7535 112.005 54.8673 113.944 54.9178L113.914 55.8932Z" fill="#2F2E41"/>
<path d="M104.668 40.2507H99.0566V41.2261H104.668V40.2507Z" fill="#2F2E41"/>
<path d="M122.38 40.2507H116.768V41.2261H122.38V40.2507Z" fill="#2F2E41"/>
<path d="M92.2463 26.7817C87.7276 26.2993 84.228 22.246 83.8436 18.1334C83.3863 13.2407 86.4298 8.59387 90.6053 5.84835C94.9719 2.97716 100.412 1.77816 105.676 1.5142C115.944 1.03583 126.036 4.14982 133.988 10.2506C137.932 13.3175 141.616 17.2241 143.012 21.9429C144.225 26.0409 143.238 30.6834 139.717 33.5535C138.846 34.2569 137.829 34.7836 136.73 35.1005C135.631 35.4173 134.473 35.5174 133.331 35.3945C130.599 35.1289 128.078 33.7842 125.897 32.2991C121.653 29.4103 118.169 25.3859 112.998 23.8763C109.207 22.7694 104.287 23.7437 101.97 26.9534C101.444 27.6881 101.104 28.525 100.974 29.401C100.926 29.5878 100.956 29.7847 101.057 29.9517C101.158 30.1188 101.324 30.2436 101.519 30.3008C101.719 30.3512 101.932 30.3258 102.112 30.2302C102.292 30.1345 102.424 29.9763 102.481 29.7899C103.089 25.7472 108.399 24.2387 112.125 25.1619C117.557 26.508 121.204 31.0465 125.661 33.93C128.005 35.446 130.67 36.6582 133.544 36.8757C136.022 37.0577 138.481 36.3505 140.422 34.8975C144.23 32.0826 145.686 27.241 144.844 22.8819C143.869 17.8341 140.24 13.5078 136.258 10.1583C128.186 3.43976 117.706 -0.184683 106.907 0.00725111C101.398 0.125693 95.6512 1.19023 90.906 3.91575C86.3031 6.55949 82.7455 10.9825 82.2805 16.1237C81.8712 20.649 84.4646 25.3822 88.9164 27.3648C89.966 27.8303 91.0916 28.1277 92.2463 28.2448C93.2439 28.3513 93.2357 26.8873 92.2463 26.7817H92.2463Z" fill="#2F2E41"/>
<path d="M58.5326 30.101C58.5326 30.101 42.8219 36.9337 29.527 41.4651C21.2768 24.0295 9.39122 24.682 9.39122 24.682L2.18538 29.327L3.4848 36.2941L3.13041 47.6849L1.24036 53.6568L3.95257 54.1157L5.4847 54.3758L5.71567 54.1802C5.33335 55.5984 5.17867 57.062 5.25671 58.5228L73.4168 48.5698C73.4168 48.5698 71.0542 38.2849 58.5326 30.101Z" fill="#E6E6E6"/>
<path d="M99.7595 115.588C73.1806 110.058 48.4327 121.504 48.4327 121.504L48.3653 121.448L38.5099 113.21L0 54.3758L9.39121 54.4311C35.4976 39.8331 72.2355 41.8237 72.2355 41.8237C88.0647 58.6335 99.7595 115.588 99.7595 115.588Z" fill="#3F3D56"/>
<path d="M52.6907 75.5423C60.7367 73.2319 65.9876 67.4773 64.4189 62.6892C62.8502 57.901 55.0558 55.8923 47.0098 58.2028C38.9637 60.5132 33.7128 66.2677 35.2815 71.0559C36.8503 75.8441 44.6446 77.8527 52.6907 75.5423Z" fill="#6C63FF"/>
<path d="M172 207.025H51.1426V208H172V207.025Z" fill="#3F3D56"/>
</svg>
